<?xml version="1.0" encoding="UTF-8"?>
<svg version="1.1" viewBox="0 0 64 64" xmlns="http://www.w3.org/2000/svg">
 <defs>
  <filter id="b" x="-.039396" y="-.55673" width="1.0788" height="2.1135">
   <feGaussianBlur stdDeviation="0.84248789"/>
  </filter>
 </defs>
 <path d="m7.1755 34.803s-1.5579-7.8246-0.97579-8.8634c1.3788-2.4607 4.6545 0.81057 7.3998 0.16263 0 0 7.6341-4.1967 12.116-4.0658 4.0717 0.11893 7.652 3.1359 11.71 3.4966 0 0 7.1685 0.4173 12.035 0.97579 2.2981 0.26376 5.9253 1.9285 7.6895 3.7782 1.0401 1.0905 1.9205 3.7089 1.0113 4.6787-16.356-1.2132-38.933-2.0219-50.985-0.16263z" fill="#fff" stroke="#2e2727" stroke-linecap="round" stroke-width="1.199"/>
 <g fill="#000" stroke="#fcfeff" stroke-width="14.9">
  <path transform="matrix(.080499 0 0 .080499 -.061632 -5.4313)" d="m225.26 479.1a64.145 55.053 0 1 1 -128.29 0 64.145 55.053 0 1 1 128.29 0z"/>
  <path transform="matrix(.071671 0 0 .084752 5.6276 -8.4984)" d="m673.77 488.7a70.206 54.548 0 1 1 -140.41 0 70.206 54.548 0 1 1 140.41 0z"/>
 </g>
 <g fill="#999" stroke="#ada7a7" stroke-linecap="round">
  <path d="m57.059 39.724a25.662 1.8159 0 1 1 -51.324 0 25.662 1.8159 0 1 1 51.324 0z" filter="url(#b)" opacity=".202" stroke-width=".6"/>
 </g>
</svg>
